<svg xmlns="http://www.w3.org/2000/svg" width="30" height="29" fill="none" viewBox="0 0 30 29">
    <path fill="#fff" d="M27.457 14.568a.724.724 0 0 0-.93-.432l-6.793 2.488 5.49-5.486a.723.723 0 0 0 0-1.026l-4.246-4.25a.725.725 0 0 0-1.025 0l-5.385 5.382 3.02-7.164a.724.724 0 0 0-.387-.95L11.666.798a.724.724 0 0 0-.95.386L7.733 8.258V.725c0-.4-.324-.725-.725-.725H.725C.325 0 0 .325 0 .725v27.55c0 .4.325.725.725.725h6.283a.725.725 0 0 0 .251-.047.72.72 0 0 0 .245.047.718.718 0 0 0 .25-.044l21.338-7.818a.725.725 0 0 0 .43-.93l-2.065-5.64zM4.286 27.55H1.45V1.45h4.833V27.55H4.286zM15.97 4.185L11.85 13.96l-.747 1.771-.747 1.77-1.275 3.025-.77 1.826-.577 1.37V11.991l4.038-9.576 4.2 1.77zM10.172 21.67l.77-1.826 2.133-5.06 7.39-7.384 3.222 3.224-7.19 7.186-2.44 2.437-5.677 5.673 1.792-4.25zm-.545 5.054l7.668-7.663 9.05-3.315 1.567 4.28-18.285 6.698z"/>
    <path fill="#fff" d="M3.867 24.568c-.032 0-.062.007-.093.01a1.04 1.04 0 0 0-.923.792c-.019.08-.032.16-.032.246 0 .23.077.44.202.613.19.262.497.434.846.434.05 0 .099-.008.148-.015a1.036 1.036 0 0 0 .889-.94c.003-.031.01-.061.01-.093a1.045 1.045 0 0 0-1.047-1.047z"/>
    <mask id="a" fill="#fff">
        <rect width="8" height="29" rx=".5"/>
    </mask>
    <rect width="8" height="29" fill="#1877F2" stroke="#1877F2" stroke-width="3.6" mask="url(#a)" rx=".5"/>
    <circle cx="4" cy="25" r="1" fill="#fff"/>
</svg>
