<?xml version="1.0" encoding="UTF-8"?>
<svg width="112px" height="112px" viewBox="0 0 112 112" version="1.1" xmlns="http://www.w3.org/2000/svg" xmlns:xlink="http://www.w3.org/1999/xlink">
    <!-- Generator: Sketch 47.1 (45422) - http://www.bohemiancoding.com/sketch -->
    <title>Group 7</title>
    <desc>Created with Sketch.</desc>
    <defs>
        <linearGradient x1="100%" y1="0%" x2="-25.9277654%" y2="93.5142576%" id="linearGradient-1">
            <stop stop-color="#2996FF" offset="0%"></stop>
            <stop stop-color="#4547FF" offset="100%"></stop>
        </linearGradient>
        <linearGradient x1="6.275158%" y1="120.865195%" x2="158.887992%" y2="72.6738456%" id="linearGradient-2">
            <stop stop-color="#2996FF" offset="0%"></stop>
            <stop stop-color="#454DFF" offset="100%"></stop>
        </linearGradient>
        <linearGradient x1="3.19506822%" y1="17.0133091%" x2="85.7485712%" y2="83.3563328%" id="linearGradient-3">
            <stop stop-color="#2996FF" offset="0%"></stop>
            <stop stop-color="#3D5CFF" offset="100%"></stop>
        </linearGradient>
    </defs>
    <g id="Website" stroke="none" stroke-width="1" fill="none" fill-rule="evenodd">
        <g id="Loading" transform="translate(-597.000000, -441.000000)">
            <g id="Group-7" transform="translate(597.000000, 441.000000)">
                <g id="Group-8">
                    <path d="M56,112 C25.072054,112 0,86.927946 0,56 C0,25.072054 25.072054,0 56,0 C86.927946,0 112,25.072054 112,56 C112,86.927946 86.927946,112 56,112 Z M56.5,88 C73.8969696,88 88,73.8969696 88,56.5 C88,39.1030304 73.8969696,25 56.5,25 C39.1030304,25 25,39.1030304 25,56.5 C25,73.8969696 39.1030304,88 56.5,88 Z" id="Combined-Shape" fill="url(#linearGradient-1)"></path>
                    <path d="M54,99 C27.490332,99 6,77.509668 6,51 C6,24.490332 27.490332,3 54,3 C80.509668,3 102,24.490332 102,51 C102,77.509668 80.509668,99 54,99 Z M56.5,88 C73.8969696,88 88,73.8969696 88,56.5 C88,39.1030304 73.8969696,25 56.5,25 C39.1030304,25 25,39.1030304 25,56.5 C25,73.8969696 39.1030304,88 56.5,88 Z" id="Combined-Shape" fill="url(#linearGradient-2)"></path>
                    <path d="M51,95 C28.3563253,95 10,76.6436747 10,54 C10,31.3563253 28.3563253,13 51,13 C73.6436747,13 92,31.3563253 92,54 C92,76.6436747 73.6436747,95 51,95 Z M56.5,88 C73.8969696,88 88,73.8969696 88,56.5 C88,39.1030304 73.8969696,25 56.5,25 C39.1030304,25 25,39.1030304 25,56.5 C25,73.8969696 39.1030304,88 56.5,88 Z" id="Combined-Shape" fill="url(#linearGradient-3)"></path>
                </g>
            </g>
        </g>
    </g>
</svg>