<svg xmlns="http://www.w3.org/2000/svg" width="13" height="13" fill="none" viewBox="0 0 13 13">
    <path fill="#fff" d="M11.607 0H5.572c-.77 0-1.393.624-1.393 1.393v2.786a.464.464 0 1 0 .928 0V1.393c0-.257.208-.464.465-.464h6.035c.257 0 .465.207.465.464v10.214a.464.464 0 0 1-.465.464H5.572a.464.464 0 0 1-.465-.464V8.821a.464.464 0 1 0-.928 0v2.786c0 .77.623 1.393 1.393 1.393h6.035c.77 0 1.393-.624 1.393-1.393V1.393C13 .623 12.377 0 11.607 0z"/>
    <path fill="#fff" d="M9.285 6.034h-7.7l1.528-1.528a.464.464 0 0 0-.656-.657L.135 6.17a.464.464 0 0 0 0 .657L2.458 9.15a.464.464 0 1 0 .657-.657l-1.53-1.529h7.701a.464.464 0 1 0 0-.929z"/>
</svg>
